<svg xmlns="http://www.w3.org/2000/svg" width="0" height="0" class="hidden">
    <symbol viewBox="0 0 16 16" xmlns="http://www.w3.org/2000/svg" id="light-sm">
        <path fill-rule="evenodd" clip-rule="evenodd" d="M8 2C8.55229 2 9 1.55228 9 1C9 0.447715 8.55229 0 8 0C7.44772 0 7 0.447715 7 1C7 1.55228 7.44772 2 8 2ZM14 3C14 3.55228 13.5523 4 13 4C12.4477 4 12 3.55228 12 3C12 2.44772 12.4477 2 13 2C13.5523 2 14 2.44772 14 3ZM15 9C14.4477 9 14 8.55228 14 8C14 7.44772 14.4477 7 15 7C15.5523 7 16 7.44772 16 8C16 8.55229 15.5523 9 15 9ZM12 13C12 12.4477 12.4477 12 13 12C13.5523 12 14 12.4477 14 13C14 13.5523 13.5523 14 13 14C12.4477 14 12 13.5523 12 13ZM9 15C9 15.5523 8.55229 16 8 16C7.44772 16 7 15.5523 7 15C7 14.4477 7.44772 14 8 14C8.55229 14 9 14.4477 9 15ZM3 14C2.44772 14 2 13.5523 2 13C2 12.4477 2.44772 12 3 12C3.55228 12 4 12.4477 4 13C4 13.5523 3.55228 14 3 14ZM1 9C0.447715 9 0 8.55228 0 8C0 7.44772 0.447715 7 1 7C1.55228 7 2 7.44772 2 8C2 8.55229 1.55228 9 1 9ZM3 4C2.44772 4 2 3.55228 2 3C2 2.44772 2.44772 2 3 2C3.55228 2 4 2.44772 4 3C4 3.55228 3.55228 4 3 4ZM8 12C5.79086 12 4 10.2091 4 8C4 5.79086 5.79086 4 8 4C10.2091 4 12 5.79086 12 8C12 10.2091 10.2091 12 8 12Z" />
    </symbol>

    <symbol viewBox="0 0 14 14" xmlns="http://www.w3.org/2000/svg" id="dark-sm">
        <path fill-rule="evenodd" clip-rule="evenodd" d="M13.7718 8.77902C13.918 8.22146 13.1743 7.90592 12.6887 8.21628C11.9123 8.7124 10.9897 8.99996 10 8.99996C7.23858 8.99996 5 6.76138 5 3.99996C5 3.01008 5.28765 2.08739 5.78393 1.31091C6.09433 0.825248 5.77886 0.0816066 5.22129 0.227657C2.21672 1.01467 0 3.7483 0 6.99967C0 10.8657 3.13401 13.9997 7 13.9997C10.2511 13.9997 12.9846 11.7833 13.7718 8.77902Z" />
    </symbol>

    <symbol viewBox="0 0 20 20" xmlns="http://www.w3.org/2000/svg" id="light-md">
        <path fill-rule="evenodd" clip-rule="evenodd" d="M11 1C11 1.55228 10.5523 2 10 2C9.44771 2 9 1.55228 9 1C9 0.447715 9.44771 0 10 0C10.5523 0 11 0.447715 11 1ZM10 13C8.34315 13 7 11.6569 7 10C7 8.34315 8.34315 7 10 7C11.6569 7 13 8.34315 13 10C13 11.6569 11.6569 13 10 13ZM10 15C7.23858 15 5 12.7614 5 10C5 7.23858 7.23858 5 10 5C12.7614 5 15 7.23858 15 10C15 12.7614 12.7614 15 10 15ZM4 5C4.55228 5 5 4.55228 5 4C5 3.44772 4.55228 3 4 3C3.44772 3 3 3.44772 3 4C3 4.55228 3.44772 5 4 5ZM19 11C18.4477 11 18 10.5523 18 10C18 9.44771 18.4477 9 19 9C19.5523 9 20 9.44771 20 10C20 10.5523 19.5523 11 19 11ZM16 5C16.5523 5 17 4.55228 17 4C17 3.44772 16.5523 3 16 3C15.4477 3 15 3.44772 15 4C15 4.55228 15.4477 5 16 5ZM11 19C11 19.5523 10.5523 20 10 20C9.44771 20 9 19.5523 9 19C9 18.4477 9.44771 18 10 18C10.5523 18 11 18.4477 11 19ZM17 16C17 15.4477 16.5523 15 16 15C15.4477 15 15 15.4477 15 16C15 16.5523 15.4477 17 16 17C16.5523 17 17 16.5523 17 16ZM1 11C0.447715 11 0 10.5523 0 10C0 9.44771 0.447715 9 1 9C1.55228 9 2 9.44771 2 10C2 10.5523 1.55228 11 1 11ZM4 17C4.55228 17 5 16.5523 5 16C5 15.4477 4.55228 15 4 15C3.44772 15 3 15.4477 3 16C3 16.5523 3.44772 17 4 17Z" />
    </symbol>

    <symbol viewBox="0 0 18 18" xmlns="http://www.w3.org/2000/svg" id="dark-md">
        <path d="M8.58.021c-2.167.161-4.106.991-5.685 2.43a9.73 9.73 0 0 0-1.002 1.082c-.247.302-.68.985-.908 1.432A8.774 8.774 0 0 0 .071 7.89C.033 8.163.019 8.465.019 9c0 .789.037 1.162.18 1.844a9.009 9.009 0 0 0 2.711 4.719c1.44 1.31 3.17 2.106 5.145 2.366.533.071 1.739.071 2.271.001 2.775-.365 5.12-1.82 6.632-4.115.417-.632.945-1.782 1.021-2.224.117-.675-.567-1.308-1.494-1.381a4.947 4.947 0 0 0-.668.032c-.979.103-1.728.026-2.617-.27-2.531-.841-4.174-3.251-3.988-5.852a5.615 5.615 0 0 1 .595-2.181c.287-.587.327-.746.272-1.091a1.068 1.068 0 0 0-.56-.799c-.093-.047-.515-.06-.939-.028M7.527 2.272c-.059.154-.201.801-.256 1.163-.067.444-.076 1.588-.015 2.025a7.796 7.796 0 0 0 1.287 3.375c.319.466.537.729.935 1.126a7.465 7.465 0 0 0 2.087 1.485c.617.303.964.433 1.558.583.648.164 1.046.217 1.779.234.351.008.638.02.638.028 0 .07-.415.688-.691 1.029a7.268 7.268 0 0 1-4.139 2.523 7.82 7.82 0 0 1-3.06-.004c-.794-.164-1.808-.589-2.49-1.044a7.097 7.097 0 0 1-2.592-3.073c-.389-.893-.559-1.724-.557-2.735 0-.798.098-1.422.332-2.126.731-2.195 2.467-3.856 4.768-4.563.434-.133.458-.134.416-.026" fill-rule="evenodd" />
    </symbol>
</svg>